<?xml version="1.0" standalone="no"?>
<!DOCTYPE svg PUBLIC "-//W3C//DTD SVG 20010904//EN"
 "http://www.w3.org/TR/2001/REC-SVG-20010904/DTD/svg10.dtd">
<svg version="1.0" xmlns="http://www.w3.org/2000/svg"
 width="200.000000pt" height="200.000000pt" viewBox="0 0 200.000000 200.000000"
 preserveAspectRatio="xMidYMid meet">
<metadata>
Created by potrace 1.11, written by Peter Selinger 2001-2013
</metadata>
<g transform="translate(0.000000,200.000000) scale(0.100000,-0.100000)"
fill="#000000" stroke="none">
<path d="M860 1885 c-14 -7 -41 -15 -60 -19 -19 -3 -47 -17 -62 -31 -15 -14
-37 -25 -50 -26 -13 0 -18 -3 -11 -5 7 -3 9 -13 6 -22 -4 -13 -2 -12 10 3 8
11 18 17 22 14 9 -10 -16 -58 -34 -64 -32 -11 -50 -49 -41 -88 4 -20 5 -35 1
-33 -4 3 -13 1 -21 -5 -13 -7 -13 -9 1 -9 8 0 40 13 70 29 72 39 145 52 254
46 276 -15 289 -17 385 -66 31 -16 62 -29 67 -29 6 0 18 -9 28 -20 10 -11 25
-20 33 -20 8 0 12 -6 9 -15 -4 -8 -2 -17 3 -20 6 -4 10 -1 10 4 0 13 10 14 29
2 21 -13 16 -56 -10 -92 -15 -22 -22 -44 -20 -66 1 -19 -2 -33 -8 -33 -6 0
-11 -11 -11 -24 0 -14 -5 -28 -10 -31 -13 -8 -13 -45 0 -45 6 0 10 -10 10 -23
0 -13 4 -27 10 -33 6 -6 -15 -10 -64 -9 -41 0 -72 3 -69 8 4 7 -28 10 -83 7
-17 -1 -60 4 -94 10 -55 10 -69 9 -104 -6 -50 -23 -56 -30 -56 -75 0 -42 -11
-49 -70 -49 -30 0 -42 5 -51 23 -7 12 -12 23 -11 25 8 11 -4 23 -42 42 l-44
21 -90 -36 c-49 -19 -96 -35 -103 -35 -8 0 -39 -6 -69 -14 -118 -29 -120 -29
-120 5 0 17 -4 28 -9 25 -4 -3 -6 -16 -4 -28 4 -19 -2 -26 -32 -37 -36 -13
-37 -14 -32 -59 6 -66 52 -183 79 -204 56 -42 199 -43 348 -3 75 20 102 43
125 107 31 86 56 104 106 78 15 -9 19 -20 17 -56 -1 -36 3 -48 21 -60 21 -15
29 -30 45 -81 6 -18 -1 -26 -50 -52 -32 -17 -65 -31 -74 -31 -9 0 -20 -3 -24
-7 -4 -5 -30 -8 -57 -9 -59 -1 -80 -17 -72 -57 4 -22 11 -27 33 -27 40 0 78
-34 82 -73 2 -26 8 -33 32 -37 46 -8 45 -31 -1 -31 -97 0 -196 -9 -208 -19 -7
-6 -19 -8 -27 -5 -15 6 -38 -31 -38 -60 0 -24 36 -17 71 12 32 27 36 28 156
27 104 -1 126 -4 143 -19 14 -13 17 -22 10 -31 -6 -7 -7 -14 -2 -16 5 -1 12
-13 16 -25 5 -16 2 -23 -14 -28 -11 -3 -20 -10 -20 -13 0 -18 43 -41 94 -52
31 -6 58 -15 61 -20 12 -19 12 -70 0 -70 -6 0 -20 -9 -29 -19 -10 -11 -33 -27
-52 -36 -19 -9 -34 -20 -34 -24 0 -17 -57 -31 -107 -26 -31 2 -53 0 -53 -5 0
-6 125 -10 330 -10 l330 0 0 68 c0 61 20 238 36 317 4 17 7 42 8 56 1 28 16
29 48 2 23 -20 78 -13 92 12 6 11 14 22 17 25 4 3 19 46 34 95 21 70 26 103
22 147 -5 62 -33 112 -68 123 -18 6 -20 12 -14 39 19 87 27 297 14 406 -3 32
-81 186 -119 237 -22 28 -40 54 -40 57 0 2 -16 20 -35 39 -31 31 -35 41 -35
88 0 41 -3 50 -11 39 -9 -13 -11 -13 -16 -1 -8 21 -60 66 -91 81 -15 7 -35 17
-46 22 -10 5 -50 18 -90 28 -88 23 -365 27 -406 5z m40 -70 c6 4 6 -3 1 -17
-4 -13 -12 -21 -15 -18 -4 3 -14 -6 -21 -20 -11 -20 -14 -21 -15 -7 0 10 -4
15 -10 12 -5 -3 -10 0 -10 7 0 7 -9 2 -19 -12 l-19 -24 11 35 c11 36 60 75 51
40 -3 -9 1 -6 7 7 11 20 14 21 21 7 5 -8 13 -13 18 -10z m-168 -65 c-5 -13
-11 -19 -14 -14 -3 5 -1 20 4 34 13 31 22 12 10 -20z m52 32 c-6 -4 -15 -17
-19 -30 -4 -13 -9 -22 -11 -19 -9 8 16 57 28 57 9 0 10 -3 2 -8z m306 -46 c0
-2 -8 -10 -17 -17 -16 -13 -17 -12 -4 4 13 16 21 21 21 13z m-409 -39 c-8 -8
-11 -7 -11 4 0 20 13 34 18 19 3 -7 -1 -17 -7 -23z m-86 -645 c-16 -12 -16
-32 0 -32 8 0 15 4 15 8 0 5 19 9 43 10 32 0 37 -1 22 -8 -17 -7 -17 -9 -2 -9
31 -2 18 -29 -23 -45 -22 -9 -49 -25 -61 -37 -26 -26 -36 -18 -23 19 5 15 24
34 44 44 38 19 28 24 -14 8 -17 -6 -26 -6 -26 0 0 24 -36 8 -47 -21 -16 -41
-3 -66 39 -74 134 -25 161 -40 91 -48 -21 -2 -6 -4 32 -4 75 0 110 10 138 41
24 26 32 13 17 -26 -28 -70 -59 -86 -204 -108 -101 -16 -217 4 -236 39 -5 10
-11 42 -15 72 -4 36 -2 47 4 34 9 -21 70 -70 77 -62 10 10 -9 36 -31 41 -13 3
-27 16 -31 29 -4 12 -11 25 -16 28 -16 10 10 58 41 74 17 8 47 19 68 24 47 11
112 13 98 3z m1060 -30 c3 -14 15 -44 26 -66 30 -63 22 -64 -21 -2 -23 33 -39
66 -38 80 3 31 24 23 33 -12z m-290 -203 c12 -5 -19 -8 -77 -8 -98 -1 -132 4
-123 20 6 9 170 0 200 -12z m281 -56 c-11 -11 -19 6 -11 24 8 17 8 17 12 0 3
-10 2 -21 -1 -24z m-205 17 c1 -5 2 -14 3 -19 0 -5 4 -13 9 -17 21 -22 -19
-96 -52 -93 -9 1 -18 0 -21 -1 -3 -1 -21 -3 -40 -4 -19 -2 -45 -6 -56 -10 -30
-9 -54 17 -54 60 0 22 -5 34 -13 34 -18 0 -57 34 -57 49 0 14 279 16 281 1z
m181 -56 c-2 -10 -4 -45 -4 -76 -1 -32 -5 -58 -10 -58 -5 0 -4 -8 1 -18 9 -17
-5 -81 -21 -98 -8 -7 7 60 16 74 3 5 0 12 -8 15 -9 4 -12 18 -9 44 2 21 6 61
8 88 2 28 4 52 4 53 1 2 7 2 14 -1 6 -2 11 -13 9 -23z m-492 -9 c20 -24 6 -28
-15 -5 -10 11 -13 20 -8 20 6 0 16 -7 23 -15z m437 -462 c-3 -10 -5 -4 -5 12
0 17 2 24 5 18 2 -7 2 -21 0 -30z m-24 -18 c-3 -9 -8 -14 -10 -11 -3 3 -2 9 2
15 9 16 15 13 8 -4z m-22 -68 c-10 -9 -11 -8 -5 6 3 10 9 15 12 12 3 -3 0 -11
-7 -18z"/>
<path d="M1943 1894 c-7 -3 -10 -11 -7 -19 3 -7 -3 -18 -14 -24 -17 -9 -21 -8
-24 7 -6 24 -38 -38 -38 -73 0 -35 42 -75 79 -75 58 0 61 4 61 101 0 86 -1 89
-22 88 -13 0 -28 -3 -35 -5z"/>
<path d="M587 1640 c-6 -16 -14 -30 -18 -30 -4 0 -6 -11 -6 -25 0 -40 20 -24
38 28 8 26 19 44 22 40 4 -3 7 -1 7 5 0 24 -32 11 -43 -18z"/>
<path d="M529 1503 c-13 -16 -12 -17 4 -4 9 7 17 15 17 17 0 8 -8 3 -21 -13z"/>
<path d="M382 1145 c0 -16 2 -22 5 -12 2 9 2 23 0 30 -3 6 -5 -1 -5 -18z"/>
<path d="M397 743 c-12 -11 -7 -87 7 -112 17 -31 27 -15 28 48 0 62 -13 86
-35 64z"/>
<path d="M960 300 c0 -5 7 -10 15 -10 8 0 15 5 15 10 0 6 -7 10 -15 10 -8 0
-15 -4 -15 -10z"/>
</g>
</svg>
